Coordinates
version=1
nRows=22
nColumns=24
inDegrees=yes

Units are S.I. units (second, meters, Newtons, ...)
Angles are in degrees.

endheader
time	pelvis_tilt	pelvis_list	pelvis_rotation	pelvis_tx	pelvis_ty	pelvis_tz	hip_flexion_r	hip_adduction_r	hip_rotation_r	knee_angle_r	ankle_angle_r	subtalar_angle_r	mtp_angle_r	hip_flexion_l	hip_adduction_l	hip_rotation_l	knee_angle_l	ankle_angle_l	subtalar_angle_l	mtp_angle_l	lumbar_extension	lumbar_bending	lumbar_rotation
      5.85000000	      1.30390356	      0.17083724	     -6.69036355	     -1.16649092	      0.67486262	      0.19426397	     -0.82226686	      5.86491153	      9.68927211	    -13.41361755	     18.25516780	    -15.28375546	      0.00000000	     26.01218499	     -2.56533554	     -7.97841149	    -48.45894491	      0.74170230	    -35.53591059	      0.00000000	    -17.68596047	     -7.47772718	      5.12519341
      5.86000000	      1.32384755	     -0.10801012	     -7.43210833	     -1.15542092	      0.67393796	      0.19530388	     -2.11537868	      6.01541952	     10.28071776	    -13.03534127	     18.96743297	    -15.03164370	      0.00000000	     26.58036130	     -3.17362470	     -8.52006959	    -44.51233847	      1.12063858	    -36.32720262	      0.00000000	    -17.78166423	     -7.37361556	      5.84829709
      5.87000000	      1.54900893	     -0.39027194	     -8.02351886	     -1.14413474	      0.67305008	      0.19611344	     -3.67110057	      6.08308456	     10.59964191	    -12.59782112	     19.68256302	    -14.54899759	      0.00000000	     26.73136877	     -3.61593980	     -8.79870084	    -40.27450267	      1.25453903	    -36.60909107	      0.00000000	    -18.12195758	     -7.26669631	      6.46182248
      5.88000000	      1.79426127	     -0.75469868	     -8.55247417	     -1.13262685	      0.67195568	      0.19681137	     -5.28630134	      6.18626506	     10.68627356	    -12.13976102	     20.51797980	    -13.85094071	      0.00000000	     26.74581584	     -4.10136640	     -9.01617124	    -35.99815657	      1.90197196	    -35.68791368	      0.00000000	    -18.45687125	     -7.06193004	      7.03511118
      5.89000000	      2.09859243	     -1.17773460	     -9.08580511	     -1.12092621	      0.67071967	      0.19747801	     -6.99681952	      6.30068005	     10.66968351	    -11.67172001	     21.29678118	    -13.12975341	      0.00000000	     26.59300431	     -4.61237449	     -9.16737143	    -31.74994954	      2.96656873	    -33.34821021	      0.00000000	    -18.83851869	     -6.83107757	      7.76344753
      5.90000000	      2.26211338	     -1.72106876	     -9.55930906	     -1.10899323	      0.66913845	      0.19809599	     -8.62879543	      6.53501702	     10.48398839	    -11.14932630	     22.20143041	    -12.20398621	      0.00000000	     26.58177830	     -5.26286345	     -9.29054385	    -27.75105829	      4.61143027	    -29.41165998	      0.00000000	    -19.02194287	     -6.43993505	      8.47710453
      5.91000000	      2.56367142	     -2.18483827	    -10.01102819	     -1.09676264	      0.66753354	      0.19861849	    -10.45557225	      6.61998275	     10.17386091	    -10.55490599	     22.89443669	    -11.27820594	      0.00000000	     26.31316237	     -5.73719991	     -9.23451906	    -23.78438466	      6.05059030	    -25.15223404	      0.00000000	    -19.31094386	     -6.16215666	      9.16981668
      5.92000000	      2.82841482	     -2.68564284	    -10.45706318	     -1.08428296	      0.66574356	      0.19908647	    -12.27564148	      6.71974771	      9.78110292	     -9.96626588	     23.63680246	    -10.29940000	      0.00000000	     26.01975534	     -6.21684678	     -8.90952916	    -20.01969925	      7.40584009	    -20.70850342	      0.00000000	    -19.50873897	     -5.83678350	      9.99904787
      5.93000000	      3.08769686	     -3.10286443	    -10.89408493	     -1.07151568	      0.66386115	      0.19946584	    -14.08207100	      6.69699166	      9.26094439	     -9.41047484	     24.20287224	     -9.33617930	      0.00000000	     25.61738412	     -6.55972718	     -8.15030628	    -16.37257676	      8.26808076	    -16.88636873	      0.00000000	    -19.62857538	     -5.58938368	     10.84298139
      5.94000000	      3.28489061	     -3.43232121	    -11.34950909	     -1.05847650	      0.66187673	      0.19979687	    -15.79553424	      6.56217356	      8.78339818	     -8.93181649	     24.61943696	     -8.44976302	      0.00000000	     25.14983157	     -6.81239302	     -6.85956409	    -12.89456734	      8.54214525	    -14.18922933	      0.00000000	    -19.59754160	     -5.41181364	     11.70245745
      5.95000000	      3.26707132	     -3.76437060	    -11.86458817	     -1.04523741	      0.65969264	      0.20014737	    -17.25490556	      6.44647106	      8.67027771	     -8.56732922	     24.72276529	     -7.98709045	      0.00000000	     24.82909244	     -7.16855225	     -5.11766105	     -9.79942080	      8.45991597	    -12.72158963	      0.00000000	    -19.24943660	     -5.18308513	     12.72134026
      5.96000000	      3.42892991	     -3.85462476	    -12.50471733	     -1.03174760	      0.65773614	      0.20052642	    -18.69052238	      5.95966434	      8.34686008	     -8.55117104	     25.01169717	     -6.98738047	      0.00000000	     24.26144814	     -7.38265924	     -3.61442928	     -7.17929391	      8.11091537	    -12.07164930	      0.00000000	    -19.00010095	     -5.27124159	     13.74796375
      5.97000000	      3.28861318	     -3.96611426	    -13.29458982	     -1.01814774	      0.65561828	      0.20099714	    -19.70955705	      5.51361730	      8.58717992	     -8.76892212	     24.94154205	     -6.53169728	      0.00000000	     24.14771397	     -7.81481346	     -2.65600428	     -5.49915057	      8.09807396	    -11.64207837	      0.00000000	    -18.33881374	     -5.26301941	     15.06726866
      5.98000000	      3.19487280	     -3.90064229	    -14.21351833	     -1.00434893	      0.65367460	      0.20149109	    -20.57234990	      4.81261327	      8.95049339	     -9.31735971	     24.90614818	     -5.99859904	      0.00000000	     24.02810067	     -8.12021962	     -2.24673609	     -4.55242658	      7.82779541	    -11.84709662	      0.00000000	    -17.63408828	     -5.45774022	     16.44555400
      5.99000000	      3.06720426	     -3.71401590	    -15.20308845	     -0.99027569	      0.65180303	      0.20189705	    -21.22318630	      3.94684091	      9.30879907	    -10.12725607	     24.59159441	     -5.58099051	      0.00000000	     24.03362333	     -8.30857604	     -2.40424170	     -4.43463512	      7.74677051	    -12.30064003	      0.00000000	    -16.78499714	     -5.71474678	     17.92530027
      6.00000000	      2.95286172	     -3.41323474	    -16.26504828	     -0.97590297	      0.65003082	      0.20224626	    -21.73827143	      2.92334672	      9.74785979	    -11.15114332	     24.07419031	     -5.22566987	      0.00000000	     24.07079668	     -8.36583306	     -3.14300468	     -5.00877588	      7.55396010	    -12.89021449	      0.00000000	    -15.84900539	     -6.04299005	     19.42346172
      6.01000000	      2.83695640	     -3.00066240	    -17.32594724	     -0.96117595	      0.64830321	      0.20246262	    -22.13406240	      1.77026213	     10.11314174	    -12.30589497	     23.34571434	     -4.92035139	      0.00000000	     24.13694854	     -8.26635583	     -4.25173666	     -6.11693534	      7.03187036	    -13.61491513	      0.00000000	    -14.80123561	     -6.40819237	     20.89810117
      6.02000000	      2.70775437	     -2.46632928	    -18.31216401	     -0.94611905	      0.64658818	      0.20249032	    -22.42109664	      0.51575664	     10.34028958	    -13.52473150	     22.45474136	     -4.71629857	      0.00000000	     24.28695499	     -7.99138629	     -5.57758430	     -7.66326360	      5.92947526	    -14.54991648	      0.00000000	    -13.64770257	     -6.80124625	     22.22980940
      6.03000000	      2.51525119	     -1.84444092	    -19.15207415	     -0.93083994	      0.64488374	      0.20223519	    -22.53556751	     -0.75216110	     10.38524215	    -14.83360722	     21.10420382	     -4.61690030	      0.00000000	     24.50452346	     -7.51640892	     -6.37377578	     -9.32674672	      3.64103457	    -16.71778110	      0.00000000	    -12.38129702	     -7.15401193	     23.31020226
      6.04000000	      2.49937515	     -1.02977742	    -19.75381956	     -0.91544451	      0.64342905	      0.20167992	    -22.70548948	     -2.16957646	     10.06916325	    -16.18670555	     19.38622916	     -4.75417407	      0.00000000	     24.74974227	     -6.71044113	     -7.21303739	    -11.28572366	      0.77830929	    -18.76274443	      0.00000000	    -11.29082990	     -7.71153455	     24.08317555
      6.05000000	      2.51857641	     -0.06492608	    -20.08296651	     -0.90011155	      0.64217205	      0.20083593	    -22.75771779	     -3.59907375	      9.49574909	    -17.66320895	     17.13948246	     -5.28071250	      0.00000000	     25.24887899	     -5.66939150	     -7.94692382	    -13.63368058	     -2.04541249	    -20.45683714	      0.00000000	    -10.27160897	     -8.40635240	     24.53107989
      6.06000000	      2.67023697	      1.00467384	    -20.14791329	     -0.88499965	      0.64125469	      0.19975042	    -22.72414307	     -5.00777541	      8.66973795	    -19.41320321	     14.27202914	     -6.26955090	      0.00000000	     25.86217238	     -4.41748925	     -8.56029395	    -16.33615651	     -4.13334872	    -21.44305867	      0.00000000	     -9.50846712	     -9.27104529	     24.66984772
